<svg class="kochab-logo" xmlns="http://www.w3.org/2000/svg" width="78" height="30" viewBox="0 0 78 30" fill="#FFF" version="1.1" xmlns:xlink="http://www.w3.org/1999/xlink" data-reactid="12"><path d="M8.41153 17.1831V3.46143H5.06836V17.3737C5.06836 22.6146 8.72993 26.0768 13.5059 26.0768C15.8302 26.0768 17.8998 25.1874 19.3962 23.631V25.6956H22.7076V3.46143H19.3644V17.1831C19.3644 20.7088 16.9764 23.0911 13.888 23.0911C10.7677 23.0911 8.41153 20.7724 8.41153 17.1831Z" fill="#FFF" data-reactid="13"></path><path d="M25.9943 25.6956H29.1782V23.6628C30.6429 25.1557 32.7125 26.0768 34.9731 26.0768C39.749 26.0768 43.5061 22.297 43.5061 17.6278C43.5061 12.9269 39.749 9.14704 34.9731 9.14704C32.7125 9.14704 30.6747 10.0682 29.2101 11.561V3.46143H25.9943V25.6956ZM29.1464 17.6278C29.1464 14.4832 31.6617 12.0057 34.7502 12.0057C37.8068 12.0057 40.3222 14.4832 40.3222 17.6278C40.3222 20.7406 37.8068 23.2499 34.7502 23.2499C31.6299 23.2499 29.1464 20.7406 29.1464 17.6278Z" fill="#FFF" data-reactid="14"></path><path d="M45.4135 17.596C45.4135 22.424 49.1706 26.045 54.0421 26.045C57.0032 26.045 59.423 24.7428 61.0468 22.5829L58.7225 20.8676C57.5126 22.4876 55.9206 23.2499 54.0421 23.2499C51.3039 23.2499 49.1069 21.2806 48.6612 18.6442H61.8747V17.596C61.8747 12.768 58.436 9.1788 53.7555 9.1788C49.0114 9.1788 45.4135 13.0221 45.4135 17.596ZM53.6919 11.974C56.0798 11.974 58.0857 13.6256 58.627 16.1032H48.7249C49.298 13.6256 51.3039 11.974 53.6919 11.974Z" fill="#FFF" data-reactid="15"></path><path d="M72.5775 12.3551V9.36938H71.4631C69.6801 9.36938 68.3747 10.1952 67.5787 11.4975V9.49643H64.3947V25.6956H67.6105V16.4843C67.6105 13.975 69.1388 12.3551 71.2403 12.3551H72.5775Z" fill="#FFF" data-reactid="16"></path></svg>