<svg xmlns="http://www.w3.org/2000/svg" width="8.835mm" height="10.562mm" viewBox="0 0 25.043 29.94">
  <title>Peugeot tick</title>
  <g>
    <polygon points="23.197 0.5 13.27 23.393 12.084 23.403 7.319 12.768 8.744 12.768 12.662 21.529 21.782 0.5 23.197 0.5" fill="#fff" stroke="#fff" stroke-miterlimit="10"/>
    <path d="M4.506,6.681a2.7,2.7,0,0,0-2.7,2.7V25.434a2.7,2.7,0,0,0,2.7,2.7H20.537a2.7,2.7,0,0,0,2.7-2.7V9.382a2.7,2.7,0,0,0-2.7-2.7ZM20.537,29.44H4.506A4.01,4.01,0,0,1,.5,25.434V9.382A4.01,4.01,0,0,1,4.506,5.376H20.537a4.01,4.01,0,0,1,4.006,4.006V25.434a4.01,4.01,0,0,1-4.006,4.006" fill="#fdfdfd" stroke="#fff" stroke-miterlimit="10"/>
  </g>
</svg>
